<svg width="100" height="89" xmlns="http://www.w3.org/2000/svg"><path d="M91.688 52.474l8.207-36.062c.592-2.604-1.39-5.083-4.063-5.083H27.64l-1.591-7.77A4.165 4.165 0 0 0 21.967.234h-17.8A4.164 4.164 0 0 0 0 4.393v2.775a4.164 4.164 0 0 0 4.167 4.16h12.132l12.196 59.543a9.7 9.7 0 0 0-4.884 8.42c0 5.362 4.353 9.709 9.722 9.709 5.37 0 9.723-4.347 9.723-9.709a9.671 9.671 0 0 0-2.921-6.935h36.397a9.672 9.672 0 0 0-2.92 6.935c0 5.362 4.352 9.709 9.721 9.709 5.37 0 9.723-4.347 9.723-9.709a9.708 9.708 0 0 0-5.483-8.739l.958-4.209c.592-2.603-1.39-5.083-4.063-5.083h-46.6l-1.137-5.548h50.894a4.165 4.165 0 0 0 4.063-3.238z" fill="#DD5800" fill-rule="evenodd"/></svg>