<svg width="239" height="62" xmlns="http://www.w3.org/2000/svg"><g fill="none" fill-rule="evenodd"><path d="M81.914 21.636c-.513.484-1.243.869-2.189 1.155-.946.286-1.925.429-2.937.429-2.068 0-3.773-.671-5.115-2.013-1.342-1.342-2.013-3.069-2.013-5.181 0-1.188.25-2.361.748-3.52a6.838 6.838 0 0 1 2.332-2.882c1.056-.763 2.405-1.144 4.048-1.144 1.203 0 2.23.169 3.08.506.85.337 1.525.733 2.024 1.188l.374 3.102-2.002.198-.352-1.98c-.88-.572-1.936-.858-3.168-.858-1.35 0-2.431.47-3.245 1.408-.814.939-1.221 2.222-1.221 3.85 0 1.701.433 2.988 1.298 3.861.865.873 2.002 1.309 3.41 1.309 1.173 0 2.134-.205 2.882-.616l.352-2.134 2.002.198-.308 3.124zM93.79 23h-5.72v-2.09h1.65V10.79h-1.65V8.7h5.72v2.09h-1.628v10.12h1.628V23zm18.498-9.636l-2.112.176-.44-2.75h-2.794v10.12h2.398V23h-7.15v-2.09h2.31V10.79h-2.816l-.44 2.75-2.09-.176.44-4.664h12.254l.44 4.664zm18.234-2.574h-1.298l-4.268 6.666v3.454h2.398V23h-7.128v-2.09h2.288v-3.476l-4.422-6.644h-1.32V8.7h5.654v2.09h-1.496l2.86 4.488h.132l2.794-4.488h-1.584V8.7h5.39v2.09zM153.9 23h-10.582v-2.09h1.65V10.79h-1.65V8.7h6.226v2.09h-2.134v10.12h4.4l.44-2.97 2.09.176L153.9 23zm11.304 0h-5.72v-2.09h1.65V10.79h-1.65V8.7h5.72v2.09h-1.628v10.12h1.628V23zm19.18-5.61h-.858V23h-1.892l-.242-1.672c-.44.557-1.02 1.012-1.738 1.364-.719.352-1.562.528-2.53.528-1.995 0-3.59-.7-4.785-2.101-1.195-1.4-1.793-3.128-1.793-5.181 0-2.039.63-3.791 1.892-5.258 1.261-1.467 3.036-2.2 5.324-2.2 1.159 0 2.193.165 3.102.495.91.33 1.613.73 2.112 1.199l.396 2.948-2.002.198-.396-1.804c-.85-.587-1.936-.88-3.256-.88-1.335 0-2.427.455-3.278 1.364-.85.91-1.276 2.207-1.276 3.894 0 1.657.403 2.933 1.21 3.828.807.895 1.863 1.342 3.168 1.342 1.1 0 1.965-.297 2.596-.891.63-.594.946-1.346.946-2.255v-.528h-3.036V15.3h6.336v2.09zM204.752 23h-5.72v-2.09h1.65v-4.136h-6.754v4.136h1.628V23h-5.72v-2.09h1.65V10.79h-1.65V8.7h5.72v2.09h-1.628v3.916h6.754V10.79h-1.65V8.7h5.72v2.09h-1.628v10.12h1.628V23zm18.498-9.636l-2.112.176-.44-2.75h-2.794v10.12h2.398V23h-7.15v-2.09h2.31V10.79h-2.816l-.44 2.75-2.09-.176.44-4.664h12.254l.44 4.664zm15.726 5.434c0 1.423-.495 2.515-1.485 3.278-.99.763-2.299 1.144-3.927 1.144a11.08 11.08 0 0 1-2.805-.352c-.902-.235-1.617-.572-2.145-1.012l.396-3.278 1.958.198-.044 1.76c.484.25.928.407 1.331.473.403.066.781.099 1.133.099.85 0 1.558-.136 2.123-.407.565-.271.847-.818.847-1.639 0-.895-.323-1.492-.968-1.793a9.531 9.531 0 0 0-2.222-.693 18.264 18.264 0 0 1-2.046-.528 3.776 3.776 0 0 1-1.716-1.1c-.455-.513-.682-1.269-.682-2.266 0-1.496.51-2.57 1.529-3.223 1.02-.653 2.16-.979 3.421-.979.88 0 1.734.132 2.563.396.829.264 1.478.609 1.947 1.034l.132 3.014-1.958.176-.198-1.848a4.3 4.3 0 0 0-1.232-.484 5.667 5.667 0 0 0-1.188-.132c-.69 0-1.261.14-1.716.418-.455.279-.682.726-.682 1.342 0 .719.282 1.206.847 1.463a9.986 9.986 0 0 0 1.903.627c.601.132 1.283.308 2.046.528a4.56 4.56 0 0 1 1.991 1.177c.565.565.847 1.434.847 2.607zM81.914 53.636c-.513.484-1.243.869-2.189 1.155-.946.286-1.925.429-2.937.429-2.068 0-3.773-.671-5.115-2.013-1.342-1.342-2.013-3.069-2.013-5.181 0-1.188.25-2.361.748-3.52a6.838 6.838 0 0 1 2.332-2.882c1.056-.763 2.405-1.144 4.048-1.144 1.203 0 2.23.169 3.08.506.85.337 1.525.733 2.024 1.188l.374 3.102-2.002.198-.352-1.98c-.88-.572-1.936-.858-3.168-.858-1.35 0-2.431.47-3.245 1.408-.814.939-1.221 2.222-1.221 3.85 0 1.701.433 2.988 1.298 3.861.865.873 2.002 1.309 3.41 1.309 1.173 0 2.134-.205 2.882-.616l.352-2.134 2.002.198-.308 3.124zm20.434-5.808c0 2.024-.653 3.762-1.958 5.214-1.305 1.452-3.087 2.178-5.346 2.178-2.273 0-4.04-.726-5.302-2.178-1.261-1.452-1.892-3.175-1.892-5.17 0-2.083.66-3.835 1.98-5.258 1.32-1.423 3.08-2.134 5.28-2.134 2.23 0 3.993.722 5.291 2.167 1.298 1.445 1.947 3.172 1.947 5.181zm-2.64.066c0-1.599-.407-2.875-1.221-3.828-.814-.953-1.947-1.43-3.399-1.43-1.525 0-2.673.495-3.443 1.485-.77.99-1.155 2.218-1.155 3.685 0 1.423.378 2.655 1.133 3.696.755 1.041 1.932 1.562 3.531 1.562 1.51 0 2.647-.488 3.41-1.463.763-.975 1.144-2.211 1.144-3.707zm18.938-2.904l-2.09.198-.44-2.398h-4.422v4.598h6.204v2.068h-6.204v3.454h2.398V55h-6.49v-2.09h1.65V42.79h-1.65V40.7h10.604l.44 4.29zm16.408 0l-2.09.198-.44-2.398h-4.422v4.598h6.204v2.068h-6.204v3.454h2.398V55h-6.49v-2.09h1.65V42.79h-1.65V40.7h10.604l.44 4.29zM151.308 55h-10.89v-2.09h1.65V42.79h-1.65V40.7h10.736l.44 4.136-2.09.176-.44-2.222h-4.554v3.96h6.292v2.09h-6.292v4.07h4.708l.44-2.222 2.09.176-.44 4.136zm17.002 0h-10.89v-2.09h1.65V42.79h-1.65V40.7h10.736l.44 4.136-2.09.176-.44-2.222h-4.554v3.96h6.292v2.09h-6.292v4.07h4.708l.44-2.222 2.09.176-.44 4.136z" fill="#262626"/><g stroke="#262626" stroke-width="2"><path d="M8.642 8.561c1.15 3.003 2.247 5.434 3.018 7.964 2.705 8.876 8.663 14.567 17.159 17.766 8.782 3.305 14.512 9.167 16.338 18.614.438 2.27-.136 3.629-2.002 4.902-5.988 4.088-12.208 3.47-18.03.236-12.428-6.905-20.213-17.544-22.917-31.54-1.292-6.687.099-12.88 6.434-17.942"/><path d="M50.245 50.832c-.94-2.77-1.685-4.822-2.33-6.904-2.02-6.504-6.02-11.431-12.578-13.267C23.064 27.226 17.168 18.389 13.61 7.036c-.85-2.71-.04-3.771 2.213-4.684C20.761.349 25.724.649 30.41 2.783 44.7 9.295 52.724 20.569 54.52 36.118c.598 5.176-.56 10.124-4.274 14.714"/></g></g></svg>