<svg width="152" height="41" xmlns="http://www.w3.org/2000/svg"><g fill="none" fill-rule="evenodd"><path d="M52.088 14.39c-.326.306-.789.55-1.39.73-.6.182-1.222.272-1.864.272-1.313 0-2.396-.424-3.248-1.274-.852-.849-1.278-1.942-1.278-3.279 0-.752.158-1.494.475-2.228a4.333 4.333 0 0 1 1.48-1.824c.671-.482 1.528-.724 2.57-.724.764 0 1.416.107 1.956.32.54.214.969.465 1.285.752l.238 1.964-1.271.125-.224-1.253c-.559-.362-1.23-.543-2.011-.543-.857 0-1.544.297-2.06.891-.517.594-.776 1.406-.776 2.437 0 1.076.275 1.891.824 2.443.55.553 1.271.829 2.165.829.745 0 1.355-.13 1.83-.39l.224-1.35 1.27.125-.195 1.977zm7.54.863h-3.631V13.93h1.047V7.525h-1.047V6.203h3.632v1.322h-1.034v6.405h1.034v1.323zm11.745-6.099l-1.34.112-.28-1.74h-1.774v6.404h1.523v1.323h-4.54V13.93h1.467V7.525H64.64l-.28 1.74-1.327-.11.28-2.952h7.78l.28 2.951zM82.95 7.525h-.824l-2.71 4.22v2.185h1.523v1.323h-4.526V13.93h1.453v-2.2l-2.808-4.205h-.838V6.203h3.59v1.322h-.95l1.816 2.84h.084l1.774-2.84h-1.006V6.203h3.422v1.322zm14.844 7.728h-6.72V13.93h1.049V7.525h-1.048V6.203h3.953v1.322h-1.355v6.405h2.794l.279-1.88 1.327.112-.28 3.091zm7.177 0h-3.632V13.93h1.048V7.525h-1.048V6.203h3.632v1.322h-1.034v6.405h1.034v1.323zm12.178-3.55h-.545v3.55h-1.201l-.154-1.058c-.28.353-.647.64-1.104.863-.456.223-.991.334-1.606.334-1.266 0-2.28-.443-3.038-1.33-.759-.886-1.138-1.979-1.138-3.278 0-1.29.4-2.4 1.2-3.328.802-.929 1.928-1.393 3.381-1.393.736 0 1.392.105 1.97.314.577.208 1.024.461 1.34.758l.252 1.866-1.271.126-.252-1.142c-.54-.371-1.229-.557-2.067-.557-.847 0-1.541.288-2.081.863-.54.576-.81 1.397-.81 2.465 0 1.049.256 1.856.768 2.422.512.567 1.183.85 2.011.85.699 0 1.248-.188 1.649-.564.4-.376.6-.852.6-1.427v-.334h-1.927V10.38h4.023v1.323zm12.932 3.55h-3.632V13.93h1.048v-2.617h-4.289v2.617h1.034v1.323h-3.632V13.93h1.048V7.525h-1.048V6.203h3.632v1.322h-1.034v2.479h4.289V7.525h-1.048V6.203h3.632v1.322h-1.034v6.405h1.034v1.323zm11.744-6.099l-1.34.112-.28-1.74h-1.774v6.404h1.523v1.323h-4.54V13.93h1.467V7.525h-1.788l-.28 1.74-1.327-.11.28-2.952h7.78l.28 2.951zm9.985 3.44c0 .9-.314 1.592-.943 2.074-.628.483-1.46.724-2.493.724a7.066 7.066 0 0 1-1.781-.222c-.573-.149-1.027-.362-1.362-.64l.252-2.076 1.243.126-.028 1.114c.307.157.589.257.845.299.256.042.496.063.72.063.54 0 .989-.086 1.347-.258.359-.172.538-.517.538-1.037 0-.566-.205-.945-.615-1.135-.41-.19-.88-.337-1.41-.439a11.626 11.626 0 0 1-1.3-.334c-.437-.14-.8-.371-1.089-.696-.289-.325-.433-.803-.433-1.434 0-.947.324-1.627.97-2.04a3.952 3.952 0 0 1 2.173-.62c.559 0 1.101.084 1.627.25.526.168.938.386 1.236.655l.084 1.908-1.243.111-.126-1.17a2.735 2.735 0 0 0-.782-.306 3.61 3.61 0 0 0-.754-.083c-.438 0-.801.088-1.09.264-.288.177-.433.46-.433.85 0 .455.18.763.538.926.358.162.761.294 1.208.397.382.083.815.194 1.3.334a2.89 2.89 0 0 1 1.263.745c.359.357.538.907.538 1.65zM52.088 34.643c-.326.306-.789.55-1.39.731-.6.181-1.222.272-1.864.272-1.313 0-2.396-.425-3.248-1.274-.852-.85-1.278-1.943-1.278-3.28 0-.751.158-1.494.475-2.227a4.333 4.333 0 0 1 1.48-1.824c.671-.483 1.528-.725 2.57-.725.764 0 1.416.107 1.956.32.54.214.969.465 1.285.753l.238 1.963-1.271.125-.224-1.253c-.559-.362-1.23-.543-2.011-.543-.857 0-1.544.297-2.06.891-.517.594-.776 1.406-.776 2.437 0 1.077.275 1.891.824 2.444.55.552 1.271.828 2.165.828.745 0 1.355-.13 1.83-.39l.224-1.35 1.27.125-.195 1.977zm12.974-3.676c0 1.281-.414 2.381-1.243 3.3-.829.92-1.96 1.379-3.394 1.379-1.444 0-2.566-.46-3.367-1.379-.8-.919-1.2-2.01-1.2-3.272 0-1.318.418-2.427 1.256-3.328.838-.9 1.956-1.35 3.353-1.35 1.415 0 2.535.457 3.359 1.371.824.914 1.236 2.007 1.236 3.28zm-1.676.042c0-1.012-.258-1.82-.775-2.423s-1.236-.905-2.158-.905c-.969 0-1.697.313-2.186.94-.49.626-.734 1.404-.734 2.332 0 .9.24 1.68.72 2.34.48.658 1.227.988 2.242.988.959 0 1.68-.309 2.165-.926.484-.617.726-1.4.726-2.346zM75.41 29.17l-1.327.125-.28-1.518h-2.807v2.91h3.94v1.31h-3.94v2.186h1.523v1.322h-4.12v-1.322h1.047v-6.406h-1.048v-1.322h6.733l.28 2.715zm10.418 0l-1.327.125-.28-1.518h-2.807v2.91h3.939v1.31h-3.939v2.186h1.523v1.322h-4.121v-1.322h1.047v-6.406h-1.047v-1.322h6.733l.279 2.715zm10.32 6.335h-6.914v-1.322h1.047v-6.406h-1.047v-1.322h6.816l.28 2.617-1.327.112-.28-1.407h-2.891v2.507h3.995v1.323h-3.995v2.576h2.989l.28-1.407 1.326.112-.28 2.617zm10.795 0h-6.914v-1.322h1.047v-6.406h-1.047v-1.322h6.816l.28 2.617-1.328.112-.279-1.407h-2.891v2.507h3.995v1.323h-3.995v2.576h2.989l.28-1.407 1.326.112-.28 2.617z" fill="#FFF"/><g stroke="#FFF" stroke-width="2"><path d="M5.595 6.122c.727 1.9 1.421 3.44 1.908 5.041 1.708 5.62 5.484 9.22 10.87 11.238 5.57 2.086 9.2 5.794 10.35 11.777.276 1.437-.09 2.298-1.274 3.107-3.803 2.594-7.748 2.208-11.439.164C8.131 33.086 3.201 26.355 1.498 17.492c-.814-4.235.074-8.158 4.097-11.37"/><path d="M31.952 32.86c-.593-1.754-1.064-3.053-1.472-4.37-1.275-4.119-3.808-7.236-7.968-8.394C14.73 17.932 10.996 12.34 8.748 5.151c-.537-1.716-.022-2.389 1.408-2.969 3.135-1.273 6.283-1.087 9.254.26 9.06 4.113 14.14 11.247 15.267 21.094.374 3.278-.365 6.413-2.725 9.324"/></g></g></svg>