<svg width="30" height="33" xmlns="http://www.w3.org/2000/svg"><g fill="#DBB47E" fill-rule="evenodd"><path d="M4.524 3.536c.632 1.646 1.235 2.978 1.66 4.364 1.493 4.862 4.75 7.99 9.385 9.757 4.79 1.828 7.924 5.047 8.939 10.22.243 1.243-.067 1.985-1.08 2.678-3.253 2.224-6.642 1.873-9.82.09-6.785-3.803-11.048-9.64-12.55-17.305-.719-3.662.026-7.047 3.466-9.804"/><path d="M26.732 27.299c-.517-1.518-.928-2.642-1.284-3.783-1.113-3.563-3.302-6.267-6.879-7.286-6.692-1.905-9.923-6.753-11.886-12.972-.468-1.485-.03-2.064 1.196-2.559 2.686-1.085 5.39-.91 7.946.267 7.799 3.593 12.192 9.78 13.204 18.29.337 2.834-.284 5.539-2.297 8.043"/></g></svg>